<svg xmlns="http://www.w3.org/2000/svg" width="11" height="15" viewBox="0 0 11 15">
  <path fill="none" stroke="#FFDE00" stroke-width="2" d="M403.335319,139.689189 C402.730213,140.581168 402.255319,141.546174 402.255319,142.698966 C402.23964,143.890828 402.68815,145.040225 403.50216,145.894249 C404.31617,146.748273 405.428985,147.236951 406.595745,147.252754 C407.762722,147.23764 408.875933,146.74918 409.690088,145.895004 C410.504243,145.040827 410.95253,143.89103 410.93617,142.698966 C410.93617,141.207118 410.211064,140.179516 409.388936,139.04759 L406.641702,135.255374 C406.593191,135.187563 405.686809,136.45772 405.620426,136.559437 C405.28,137.027161 404.939574,137.497493 404.599149,137.970434 C404.172766,138.539005 403.725957,139.097144 403.335319,139.689189 Z" transform="translate(-401 -134)"/>
</svg>
