<svg xmlns="http://www.w3.org/2000/svg" width="18" height="10" viewBox="0 0 18 10">
  <path fill="#000000" fill-rule="evenodd" d="M430,182 L438,182 L438,180 L430,180 L430,182 L430,182 Z M427,181 C426.688889,179.083333 428.288889,177.583333 430,178 L433,178 L433,176 L430,176 C427.4,176 425,178.25 425,181 C425,183.75 427.4,186 430,186 L433,186 L433,184 L430,184 C428.288889,184.416667 426.688889,182.916667 427,181 L427,181 Z M438,176 L435,176 L435,178 L438,178 C439.711111,177.583333 441.311111,179.083333 441,181 C441.311111,182.916667 439.711111,184.416667 438,184 L435,184 L435,186 L438,186 C440.6,186 443,183.75 443,181 C443,178.25 440.6,176 438,176 L438,176 Z" transform="translate(-425 -176)" opacity=".1"/>
</svg>
