<svg xmlns="http://www.w3.org/2000/svg" width="11" height="15" viewBox="0 0 11 15">
  <path fill="none" stroke="#5CD866" stroke-width="2" d="M443.335319,139.689189 C442.730213,140.581168 442.255319,141.546174 442.255319,142.698966 C442.23964,143.890828 442.68815,145.040225 443.50216,145.894249 C444.31617,146.748273 445.428985,147.236951 446.595745,147.252754 C447.762722,147.23764 448.875933,146.74918 449.690088,145.895004 C450.504243,145.040827 450.95253,143.89103 450.93617,142.698966 C450.93617,141.207118 450.211064,140.179516 449.388936,139.04759 L446.641702,135.255374 C446.593191,135.187563 445.686809,136.45772 445.620426,136.559437 C445.28,137.027161 444.939574,137.497493 444.599149,137.970434 C444.172766,138.539005 443.725957,139.097144 443.335319,139.689189 Z" transform="translate(-441 -134)"/>
</svg>
