<svg xmlns="http://www.w3.org/2000/svg" width="11" height="15" viewBox="0 0 11 15">
  <path fill="none" stroke="#CACACA" stroke-width="2" d="M483.335319,139.689189 C482.730213,140.581168 482.255319,141.546174 482.255319,142.698966 C482.23964,143.890828 482.68815,145.040225 483.50216,145.894249 C484.31617,146.748273 485.428985,147.236951 486.595745,147.252754 C487.762722,147.23764 488.875933,146.74918 489.690088,145.895004 C490.504243,145.040827 490.95253,143.89103 490.93617,142.698966 C490.93617,141.207118 490.211064,140.179516 489.388936,139.04759 L486.641702,135.255374 C486.593191,135.187563 485.686809,136.45772 485.620426,136.559437 C485.28,137.027161 484.939574,137.497493 484.599149,137.970434 C484.172766,138.539005 483.725957,139.097144 483.335319,139.689189 Z" transform="translate(-481 -134)"/>
</svg>
