<svg xmlns="http://www.w3.org/2000/svg" width="13" height="13" viewBox="0 0 13 13">
  <path fill="#B9001D" fill-rule="evenodd" d="M240,364.885824 L236.668941,361.554765 C237.338059,360.661588 237.738765,359.555824 237.738765,358.353706 C237.738765,355.397353 235.342176,353.000765 232.385824,353.000765 C229.429471,353.000765 227.032882,355.397353 227.032882,358.353706 C227.032882,361.310059 229.429471,363.706647 232.385824,363.706647 C233.587941,363.706647 234.693706,363.305176 235.586882,362.636824 L238.917941,365.967882 L240,364.885824 Z M228.562294,358.352941 C228.562294,356.244647 230.277529,354.529412 232.385824,354.529412 C234.494118,354.529412 236.209353,356.244647 236.209353,358.352941 C236.209353,360.461235 234.494118,362.176471 232.385824,362.176471 C230.277529,362.176471 228.562294,360.461235 228.562294,358.352941 Z" transform="translate(-227 -353)"/>
</svg>
