<svg xmlns="http://www.w3.org/2000/svg" width="11" height="15" viewBox="0 0 11 15">
  <path fill="none" stroke="#A5D6D6" stroke-width="2" d="M423.335319,139.689189 C422.730213,140.581168 422.255319,141.546174 422.255319,142.698966 C422.23964,143.890828 422.68815,145.040225 423.50216,145.894249 C424.31617,146.748273 425.428985,147.236951 426.595745,147.252754 C427.762722,147.23764 428.875933,146.74918 429.690088,145.895004 C430.504243,145.040827 430.95253,143.89103 430.93617,142.698966 C430.93617,141.207118 430.211064,140.179516 429.388936,139.04759 L426.641702,135.255374 C426.593191,135.187563 425.686809,136.45772 425.620426,136.559437 C425.28,137.027161 424.939574,137.497493 424.599149,137.970434 C424.172766,138.539005 423.725957,139.097144 423.335319,139.689189 Z" transform="translate(-421 -134)"/>
</svg>
