<svg xmlns="http://www.w3.org/2000/svg" width="11" height="15" viewBox="0 0 11 15">
  <path fill="none" stroke="#FFA7FF" stroke-width="2" d="M463.335319,139.689189 C462.730213,140.581168 462.255319,141.546174 462.255319,142.698966 C462.23964,143.890828 462.68815,145.040225 463.50216,145.894249 C464.31617,146.748273 465.428985,147.236951 466.595745,147.252754 C467.762722,147.23764 468.875933,146.74918 469.690088,145.895004 C470.504243,145.040827 470.95253,143.89103 470.93617,142.698966 C470.93617,141.207118 470.211064,140.179516 469.388936,139.04759 L466.641702,135.255374 C466.593191,135.187563 465.686809,136.45772 465.620426,136.559437 C465.28,137.027161 464.939574,137.497493 464.599149,137.970434 C464.172766,138.539005 463.725957,139.097144 463.335319,139.689189 Z" transform="translate(-461 -134)"/>
</svg>
