<svg xmlns="http://www.w3.org/2000/svg" width="16" height="11" viewBox="0 0 16 11">
  <path fill="#000000" fill-rule="evenodd" d="M465.333333,186 L456.666667,186 C454.644667,186 453,184.303937 453,182.21875 C453,180.51925 454.11,179.0315 455.674667,178.579125 C455.774667,177.346438 456.779333,176.375 458,176.375 C458.354,176.375 458.698667,176.456813 459.013333,176.613563 C459.696667,175.6105 460.813333,175 462,175 C463.914,175 465.490667,176.520062 465.652667,178.451938 C467.526,178.619 469,180.244937 469,182.21875 C469,184.303937 467.355333,186 465.333333,186 Z M458.454545,177.880952 C457.675071,177.880952 457.040404,178.468667 457.040404,179.190476 C457.046626,179.319333 456.955556,179.473857 456.819232,179.499524 C455.636444,179.719524 454.777778,180.69119 454.777778,181.809524 C454.777778,183.109095 455.919838,184.166667 457.323232,184.166667 L464.676768,184.166667 C466.080162,184.166667 467.222222,183.109095 467.222222,181.809524 C467.222222,180.509952 466.080162,179.452381 464.676768,179.452381 C464.520646,179.452381 464.393939,179.335048 464.393939,179.190476 C464.393939,177.890905 463.251879,176.833333 461.848485,176.833333 C460.949657,176.833333 460.10796,177.288524 459.65204,178.02081 C459.61301,178.08419 459.547394,178.129238 459.470465,178.145476 C459.394101,178.162238 459.313212,178.147571 459.248162,178.106714 C459.013414,177.959 458.738505,177.880952 458.454545,177.880952 Z" transform="translate(-453 -175)" opacity=".1"/>
</svg>
