<svg xmlns="http://www.w3.org/2000/svg" width="10" height="14" viewBox="0 0 10 14">
  <path fill="none" stroke="#FCA1A1" stroke-width="2" d="M502.995565,139.436434 C502.437972,140.328413 502.000366,141.29342 502.000366,142.446212 C501.985919,143.638073 502.399212,144.78747 503.149306,145.641495 C503.8994,146.495519 504.924837,146.984196 505.999984,147 C507.07533,146.984886 508.101133,146.496426 508.851361,145.642249 C509.601589,144.788073 510.014676,143.638276 509.999601,142.446212 C509.999601,140.954364 509.33143,139.926762 508.573855,138.794835 L506.042333,135.00262 C505.997631,134.934809 505.162417,136.204966 505.101246,136.306683 C504.787551,136.774407 504.473855,137.244739 504.16016,137.717679 C503.767256,138.286251 503.355531,138.84439 502.995565,139.436434 Z" transform="translate(-501 -134)"/>
</svg>
