<svg xmlns="http://www.w3.org/2000/svg" width="100" height="15" viewBox="0 0 100 15">
  <g fill="none" fill-rule="evenodd">
    <path fill="#BD1227" d="M37.0283203,12.7431641 C37.0283203,12.2509741 37.1601549,11.8789075 37.4238281,11.6269531 C37.6875013,11.3749987 38.0712865,11.2490234 38.5751953,11.2490234 C39.0615259,11.2490234 39.4379869,11.3779284 39.7045898,11.6357422 C39.9711927,11.893556 40.1044922,12.2626929 40.1044922,12.7431641 C40.1044922,13.206057 39.9697279,13.5707994 39.7001953,13.8374023 C39.4306627,14.1040052 39.0556665,14.2373047 38.5751953,14.2373047 C38.0830054,14.2373047 37.7021498,14.1069349 37.4326172,13.8461914 C37.1630846,13.5854479 37.0283203,13.2177758 37.0283203,12.7431641 Z M54.1494141,14 L50.6865234,14 L45.0966797,4.27929688 L45.0175781,4.27929688 C45.1289068,5.99610233 45.1845703,7.22069946 45.1845703,7.953125 L45.1845703,14 L42.75,14 L42.75,1.15039062 L46.1865234,1.15039062 L51.7675781,10.7744141 L51.8291016,10.7744141 C51.7412105,9.10448384 51.6972656,7.92383158 51.6972656,7.23242188 L51.6972656,1.15039062 L54.1494141,1.15039062 L54.1494141,14 Z M69.046875,7.55761719 C69.046875,9.68458095 68.5195365,11.3193302 67.4648438,12.4619141 C66.410151,13.6044979 64.8984473,14.1757812 62.9296875,14.1757812 C60.9609277,14.1757812 59.449224,13.6044979 58.3945312,12.4619141 C57.3398385,11.3193302 56.8125,9.67872163 56.8125,7.54003906 C56.8125,5.40135649 57.3413033,3.76807205 58.3989258,2.64013672 C59.4565483,1.51220139 60.9726464,0.948242188 62.9472656,0.948242188 C64.9218849,0.948242188 66.4321237,1.51659588 67.4780273,2.65332031 C68.523931,3.79004475 69.046875,5.42479402 69.046875,7.55761719 Z M59.6689453,7.55761719 C59.6689453,8.99317124 59.9414035,10.0742151 60.4863281,10.8007812 C61.0312527,11.5273474 61.8456977,11.890625 62.9296875,11.890625 C65.1035265,11.890625 66.1904297,10.4463035 66.1904297,7.55761719 C66.1904297,4.66307146 65.1093858,3.21582031 62.9472656,3.21582031 C61.8632758,3.21582031 61.0459012,3.58056276 60.4951172,4.31005859 C59.9443332,5.03955443 59.6689453,6.12206313 59.6689453,7.55761719 Z M76.6669922,14 L73.9423828,14 L73.9423828,3.41796875 L70.453125,3.41796875 L70.453125,1.15039062 L80.15625,1.15039062 L80.15625,3.41796875 L76.6669922,3.41796875 L76.6669922,14 Z M89.5341797,14 L82.1337891,14 L82.1337891,1.15039062 L89.5341797,1.15039062 L89.5341797,3.3828125 L84.8583984,3.3828125 L84.8583984,6.20410156 L89.2089844,6.20410156 L89.2089844,8.43652344 L84.8583984,8.43652344 L84.8583984,11.75 L89.5341797,11.75 L89.5341797,14 Z M99.7998047,10.4316406 C99.7998047,11.5918027 99.3823284,12.505856 98.5473633,13.1738281 C97.7123982,13.8418002 96.5507887,14.1757812 95.0625,14.1757812 C93.6913994,14.1757812 92.4785209,13.9179713 91.4238281,13.4023438 L91.4238281,10.8710938 C92.29102,11.2578144 93.0248993,11.5302726 93.6254883,11.6884766 C94.2260772,11.8466805 94.7753881,11.9257812 95.2734375,11.9257812 C95.8710967,11.9257812 96.3295882,11.8115246 96.6489258,11.5830078 C96.9682633,11.354491 97.1279297,11.0146507 97.1279297,10.5634766 C97.1279297,10.3115222 97.0576179,10.0874033 96.9169922,9.89111328 C96.7763665,9.69482324 96.5698256,9.50586028 96.2973633,9.32421875 C96.024901,9.14257722 95.4697308,8.85254105 94.6318359,8.45410156 C93.8466758,8.08495909 93.2578145,7.73047045 92.8652344,7.390625 C92.4726543,7.05077955 92.1591809,6.65527569 91.9248047,6.20410156 C91.6904285,5.75292743 91.5732422,5.22558896 91.5732422,4.62207031 C91.5732422,3.48534588 91.9584922,2.59180013 92.7290039,1.94140625 C93.4995156,1.29101237 94.5644463,0.965820312 95.9238281,0.965820312 C96.5918002,0.965820312 97.2290009,1.04492108 97.8354492,1.203125 C98.4418976,1.36132892 99.0761686,1.58398294 99.7382812,1.87109375 L98.859375,3.98925781 C98.1738247,3.70800641 97.6069358,3.51171931 97.1586914,3.40039062 C96.710447,3.28906194 96.2695334,3.23339844 95.8359375,3.23339844 C95.3203099,3.23339844 94.9248061,3.35351442 94.6494141,3.59375 C94.3740221,3.83398558 94.2363281,4.147459 94.2363281,4.53417969 C94.2363281,4.77441526 94.2919916,4.98388583 94.4033203,5.16259766 C94.514649,5.34130949 94.6918933,5.51415932 94.9350586,5.68115234 C95.1782239,5.84814537 95.7539017,6.14843533 96.6621094,6.58203125 C97.8632873,7.15625287 98.6865212,7.73193071 99.1318359,8.30908203 C99.5771507,8.88623335 99.7998047,9.59374581 99.7998047,10.4316406 Z" style="mix-blend-mode:multiply"/>
    <path fill="#333333" d="M0.463,12.037 C1.64,13.697 3.393,14.277 4.88,14.277 C8.596,14.277 9.896,12.077 9.896,9.422 L9.896,0.5 L1.598,0.5 L1.598,3.052 L6.862,3.052 L6.862,9.172 C6.862,11.042 6.16,11.642 4.777,11.642 C3.89,11.642 3.002,11.124 2.217,10.149 L0.463,12.035 L0.463,12.037 Z M11.758,12.214 C13.178,13.477 15.001,14.13 16.785,14.13 C20.068,14.13 21.913,12.214 21.913,10.013 C21.913,8.138 20.818,7.057 19.075,6.405 L17.475,5.712 C16.197,5.242 15.305,4.958 15.305,4.142 C15.305,3.389 15.975,2.94 17.129,2.94 C18.262,2.94 19.093,3.328 20.005,4 L21.525,2.105 C20.33,0.963 18.729,0.352 17.127,0.352 C14.267,0.352 12.282,2.105 12.282,4.306 C12.282,6.242 13.62,7.383 15.099,7.934 L16.802,8.667 C18.079,9.157 18.849,9.422 18.849,10.257 C18.849,11.052 18.241,11.541 16.863,11.541 C15.707,11.541 14.471,10.971 13.478,10.157 L11.755,12.217 L11.758,12.214 Z M27.465,2.981 L28.925,2.981 C30.505,2.981 31.337,3.431 31.337,4.736 C31.337,6.041 30.507,6.713 28.925,6.713 L27.465,6.713 L27.465,2.983 L27.465,2.981 Z M34.905,13.887 L31.925,8.567 C33.323,7.937 34.275,6.692 34.275,4.737 C34.275,1.577 31.965,0.597 29.168,0.597 L24.486,0.597 L24.486,13.887 L27.466,13.887 L27.466,9.097 L29.026,9.097 L31.56,13.887 L34.904,13.887 L34.905,13.887 Z"/>
  </g>
</svg>
