<svg xmlns="http://www.w3.org/2000/svg" width="18" height="20" viewBox="0 0 18 20">
  <g fill="#BE1622" fill-rule="evenodd">
    <path d="M6.76580645,15.44 L7.22645161,16.3729032 L10.7070968,14.6554839 L10.2470968,13.7225806 L6.76774194,15.44 L6.76580645,15.44 Z M7.52903226,12.9677419 L9.94580645,14.1612903 L10.4064516,13.2283871 L7.98967742,12.0348387 L7.52903226,12.9683871 L7.52903226,12.9677419 Z"/>
    <polygon points="6.533 16.445 11.363 17.852 11.653 16.854 6.825 15.446 6.533 16.446"/>
    <path d="M9.0116129,5.60903226 C7.89548387,5.60903226 6.99225806,6.51354839 6.99225806,7.6283871 C6.99225806,8.74451613 7.89548387,9.64774194 9.0116129,9.64774194 C10.1264516,9.64774194 11.0309677,8.74451613 11.0309677,7.6283871 C11.0309677,6.51354839 10.1264516,5.60903226 9.0116129,5.60903226 Z M9.0116129,8.26258065 C8.66129032,8.26258065 8.37741935,7.97870968 8.37741935,7.6283871 C8.37741935,7.27806452 8.66129032,6.99483871 9.0116129,6.99483871 C9.36193548,6.99483871 9.64516129,7.27870968 9.64516129,7.6283871 C9.64516129,7.97870968 9.36129032,8.26258065 9.0116129,8.26258065 Z"/>
    <path d="M10.2387097,9.28580645 C10.116129,8.90322581 9.68129032,8.59354839 9.27096774,8.59354839 L8.7916129,8.59354839 C8.38064516,8.59354839 7.9483871,8.90516129 7.82580645,9.28580645 L4.80645161,18.7212903 C4.68387097,19.1045161 4.91483871,19.4141935 5.3316129,19.4141935 L5.92709677,19.4141935 C6.13225806,19.4141935 6.34516129,19.2593548 6.40258065,19.0625806 L7.94709677,13.7812903 C8.31741935,12.5270968 8.56967742,11.4696774 8.97290323,10.2303226 L9.04064516,10.2303226 C9.42645161,11.4690323 9.67935484,12.5270968 10.0490323,13.7825806 L11.6103226,19.0645161 C11.6670968,19.2580645 11.8787097,19.4154839 12.0832258,19.4154839 L12.7496774,19.4154839 C13.1612903,19.4154839 13.3948387,19.103871 13.2722581,18.7225806 L10.2367742,9.28709677 L10.2387097,9.28580645 Z"/>
    <polyline points="4.976 3.283 4.682 3.519 7.197 5.287 7.255 5.226 6.358 4.005 6.826 4.033 5.83 2.885 6.088 2.571 3.002 .237 2.944 .298 4.144 1.946 3.765 1.945 4.978 3.285"/>
    <polyline points="4.845 7.093 5.196 6.841 3.591 6.221 3.863 5.836 .279 5.525 .252 5.609 1.712 6.183 1.542 6.497 3.475 6.971 3.179 7.344 5.853 7.705 5.89 7.632 4.845 7.093"/>
    <polyline points="13.095 3.283 13.389 3.519 10.874 5.287 10.816 5.226 11.713 4.005 11.245 4.033 12.241 2.885 11.983 2.571 15.068 .237 15.128 .298 13.928 1.946 14.306 1.945 13.093 3.285"/>
    <polyline points="13.227 7.093 12.875 6.841 14.481 6.221 14.208 5.836 17.792 5.525 17.82 5.609 16.362 6.183 16.531 6.497 14.598 6.971 14.895 7.344 12.221 7.705 12.184 7.632 13.229 7.093"/>
  </g>
</svg>
